<svg data-v-fde0c5aa="" xmlns="http://www.w3.org/2000/svg" viewBox="0 0 300 300" class="iconLeft"><!----><defs data-v-fde0c5aa=""><!----></defs><rect data-v-fde0c5aa="" fill="transparent" x="0" y="0" width="300px" height="300px" class="logo-background-square"></rect><defs data-v-fde0c5aa=""><!----></defs><g data-v-fde0c5aa="" id="f3c9c67d-0c11-4e9f-ab08-9849a417264e" fill="#000000" transform="matrix(3.2485874354566473,0,0,3.2485874354566473,106.8290954765513,126.80508537004917)"><path d="M1.19 3.92L1.19 6.16L0.14 6.16L0.14 6.86L1.19 6.86L1.19 12.60L1.89 12.60L1.89 6.86L2.94 6.86L2.94 6.16L1.89 6.16L1.89 3.92ZM4.20 3.29C4.20 3.44 4.25 3.57 4.35 3.67C4.46 3.77 4.58 3.82 4.73 3.82C4.88 3.82 5.01 3.77 5.11 3.67C5.21 3.57 5.26 3.44 5.26 3.29C5.26 3.14 5.21 3.01 5.11 2.91C5.01 2.81 4.88 2.76 4.73 2.76C4.58 2.76 4.46 2.81 4.35 2.91C4.25 3.01 4.20 3.14 4.20 3.29ZM4.38 6.16L4.38 12.60L5.08 12.60L5.08 6.16ZM10.12 2.72L10.53 2.13C10.25 1.75 9.84 1.57 9.30 1.57C8.74 1.57 8.32 1.77 8.05 2.18C7.78 2.58 7.64 3.12 7.64 3.78L7.64 6.16L7.01 6.16L7.01 6.86L7.64 6.86L7.64 12.60L8.34 12.60L8.34 6.86L10.02 6.86L10.02 6.16L8.34 6.16L8.34 3.92C8.34 3.41 8.41 3.01 8.55 2.72C8.69 2.44 8.94 2.30 9.30 2.30C9.62 2.30 9.90 2.44 10.12 2.72ZM14.06 2.72L14.46 2.13C14.18 1.75 13.77 1.57 13.23 1.57C12.67 1.57 12.25 1.77 11.98 2.18C11.71 2.58 11.58 3.12 11.58 3.78L11.58 6.16L10.95 6.16L10.95 6.86L11.58 6.86L11.58 12.60L12.28 12.60L12.28 6.86L13.96 6.86L13.96 6.16L12.28 6.16L12.28 3.92C12.28 3.41 12.35 3.01 12.49 2.72C12.63 2.44 12.88 2.30 13.23 2.30C13.56 2.30 13.83 2.44 14.06 2.72ZM15.37 3.29C15.37 3.44 15.42 3.57 15.53 3.67C15.63 3.77 15.75 3.82 15.90 3.82C16.05 3.82 16.18 3.77 16.28 3.67C16.38 3.57 16.44 3.44 16.44 3.29C16.44 3.14 16.38 3.01 16.28 2.91C16.18 2.81 16.05 2.76 15.90 2.76C15.75 2.76 15.63 2.81 15.53 2.91C15.42 3.01 15.37 3.14 15.37 3.29ZM15.55 6.16L15.55 12.60L16.25 12.60L16.25 6.16ZM19.38 8.68C19.38 8.15 19.57 7.69 19.95 7.31C20.33 6.94 20.80 6.75 21.36 6.75C21.92 6.75 22.30 6.90 22.51 7.20C22.71 7.51 22.81 7.95 22.81 8.54L22.81 12.60L23.51 12.60L23.51 8.40C23.51 7.58 23.34 6.98 23.01 6.61C22.68 6.23 22.18 6.05 21.50 6.05C20.48 6.05 19.77 6.45 19.38 7.27L19.38 6.16L18.68 6.16L18.68 12.60L19.38 12.60ZM25.54 3.92L25.54 6.16L24.49 6.16L24.49 6.86L25.54 6.86L25.54 12.60L26.24 12.60L26.24 6.86L27.29 6.86L27.29 6.16L26.24 6.16L26.24 3.92ZM33.28 8.85L28.73 8.85C28.76 8.25 28.99 7.74 29.43 7.33C29.87 6.91 30.42 6.71 31.08 6.71C31.71 6.71 32.23 6.92 32.61 7.34C33.00 7.76 33.22 8.26 33.28 8.85ZM28.70 9.48L34.01 9.48C34.02 9.43 34.02 9.38 34.02 9.32C34.02 8.33 33.75 7.53 33.20 6.94C32.66 6.34 31.95 6.05 31.08 6.05C30.15 6.05 29.40 6.36 28.83 6.98C28.27 7.60 27.99 8.40 27.99 9.38C27.99 10.34 28.29 11.14 28.90 11.77C29.51 12.40 30.26 12.71 31.15 12.71C32.33 12.71 33.27 12.18 33.98 11.10L33.42 10.65C33.18 11.07 32.87 11.41 32.47 11.65C32.08 11.90 31.66 12.03 31.22 12.03C30.48 12.03 29.88 11.79 29.42 11.30C28.96 10.82 28.72 10.22 28.70 9.48ZM35.78 9.38C35.78 8.62 36.02 8.00 36.49 7.50C36.96 7.00 37.58 6.75 38.33 6.75C38.83 6.75 39.26 6.85 39.63 7.05C40.01 7.25 40.27 7.50 40.43 7.81L40.43 6.87C39.96 6.32 39.26 6.05 38.33 6.05C37.41 6.05 36.63 6.36 36.01 6.99C35.38 7.62 35.07 8.42 35.07 9.38C35.07 10.34 35.38 11.14 36.01 11.77C36.63 12.40 37.41 12.71 38.33 12.71C39.27 12.71 39.97 12.44 40.43 11.89L40.43 10.95C40.27 11.26 40.01 11.51 39.63 11.71C39.26 11.91 38.83 12.01 38.33 12.01C37.58 12.01 36.96 11.76 36.49 11.26C36.02 10.76 35.78 10.14 35.78 9.38ZM43.02 8.68C43.02 8.15 43.21 7.69 43.60 7.31C43.98 6.94 44.45 6.75 45.01 6.75C45.57 6.75 45.95 6.90 46.15 7.20C46.35 7.51 46.45 7.95 46.45 8.54L46.45 12.60L47.15 12.60L47.15 8.40C47.15 7.58 46.99 6.98 46.66 6.61C46.32 6.23 45.82 6.05 45.15 6.05C44.12 6.05 43.41 6.45 43.02 7.27L43.02 1.68L42.32 1.68L42.32 12.60L43.02 12.60Z"></path></g><defs data-v-fde0c5aa=""><linearGradient data-v-fde0c5aa="" gradientTransform="rotate(25)" id="97da9db2-6e3c-49fe-ba3f-6660b9dce621" x1="0%" y1="0%" x2="100%" y2="0%"><stop data-v-fde0c5aa="" offset="0%" stop-color="#0D7CE9" stop-opacity="1"></stop><stop data-v-fde0c5aa="" offset="100%" stop-color="#15CFF1" stop-opacity="1"></stop></linearGradient></defs><g data-v-fde0c5aa="" id="d291b7bd-95e0-407c-a46c-33079ed1f23d" stroke="none" fill="url(#97da9db2-6e3c-49fe-ba3f-6660b9dce621)" transform="matrix(1.696371803732861,0,0,1.696371803732861,40,122.85805114027423)"><path d="M15.965 16.258l.707-.707 10.39 10.39-.707.707z"></path><path d="M4.935 26.357L26.018 5.274l.707.707L5.642 27.065z"></path><path d="M31 1v4.194h-4.194V1H31m1-1h-6.194v6.194H32V0zM31 26.806V31h-4.194v-4.194H31m1-1h-6.194V32H32v-6.194zM5.194 26.806V31H1v-4.194h4.194m1-1H0V32h6.194v-6.194z"></path></g><!----></svg>