<?xml version="1.0" encoding="iso-8859-1"?>
<!-- Generator: Adobe Illustrator 19.0.0, SVG Export Plug-In . SVG Version: 6.00 Build 0)  -->
<svg version="1.1" id="Capa_1" xmlns="http://www.w3.org/2000/svg" xmlns:xlink="http://www.w3.org/1999/xlink" x="0px" y="0px"
	 viewBox="0 0 187.064 187.064" style="enable-background:new 0 0 187.064 187.064;" xml:space="preserve">
<g>
	<g>
		<path style="fill:#FF9F40;" d="M77.75,51.365c-2.29,3.721-5.14,7.141-8.29,10.25c-0.55,0.551-1.109,1.08-1.68,1.61
			c-4.66,4.33-9.86,8.03-14.83,11.09c-5.53,3.41-10.79,6.021-14.76,7.8c-0.01,0-0.021,0-0.021,0.011
			c-4.26,1.93-7.02,2.899-7.02,2.899s-1.65-5.45-2.84-13.59c-0.11-0.71-0.21-1.45-0.311-2.21c-0.14-1.16-0.279-2.38-0.399-3.63
			c-1.57-16.23-0.28-38.9,15.37-52.84c5.93-5.29,23.14,20.109,30.899,32.34C76.261,48.856,77.75,51.365,77.75,51.365z"/>
	</g>
	<g>
		<path style="fill:#FFCA8A;" d="M73.918,55.694c0,0-20.187-39.42-26.434-33.857C26.14,40.845,36.382,82.803,36.382,82.803
			S62.97,73.419,73.918,55.694z"/>
	</g>
	<g>
		<path style="fill:#FF9F40;" d="M110.076,51.369c0,0,27.024-45.523,34.78-38.617c26.5,23.6,11.82,72.273,11.82,72.273
			S123.668,73.375,110.076,51.369z"/>
	</g>
	<g>
		<path style="fill:#FFCA8A;" d="M113.905,55.694c0,0,20.187-39.42,26.434-33.857c21.345,19.009,11.103,60.967,11.103,60.967
			S124.854,73.419,113.905,55.694z"/>
	</g>
	<path style="fill:#FFCA8A;" d="M71.96,166.896v0.01c0,0-6.76-3.17-17.239-7.01c-9.32-3.42-21.57-7.359-34.63-10.09
		c0,0,5.64-3.38,10.409-3.63c0,0-19.5-15.5-30.5-16.17c0,0,8.17-4,15.341-4c0,0-23.25-30.46-2.881-62.25
		c0.03,0.01,0.03,0.03,0.051,0.03c0.02,0.01,0.029,0.029,0.05,0.029c0.84,0.431,6.75,3.32,15.04,1.78c2-0.37,4.14-1,6.38-1.99
		c2.04-0.89,4.17-2.09,6.35-3.649c0.09-0.08,0.191-0.15,0.28-0.2c0.09-0.061,0.17-0.13,0.26-0.181c3.11-1.97,6.221,1.261,9.23,7.681
		c0.96,2.05,1.91,4.43,2.85,7.06c0.04,0.13,0.09,0.26,0.13,0.391c1.851,5.27,3.63,11.55,5.32,18.31c0.25,1.03,0.5,2.07,0.76,3.12
		c0.33,1.38,0.65,2.78,0.97,4.189c0.08,0.311,0.15,0.631,0.221,0.95c0.359,1.59,0.72,3.19,1.06,4.8
		c0.84,3.86,1.641,7.771,2.391,11.65c0.069,0.34,0.13,0.67,0.199,1c0.13,0.68,0.261,1.36,0.391,2.04c0.71,3.73,1.38,7.41,2.01,10.96
		C69.78,150.865,71.9,166.396,71.96,166.896z"/>
	<path style="fill:#FFCA8A;" d="M94.57,42.936v0.03L94.4,75.986v0.08l-0.19,36.86l-0.06,12.59l-0.06,10.53v0.34l-0.03,5.86
		L94,153.666l-0.01,0.979l-0.1,20.37c-0.12,0-0.231,0.01-0.351,0c-0.27,0.01-0.55,0.01-0.819,0.01c-6.301,0-11.261-1.58-15.62-4.3
		c-1.391-0.87-2.73-1.85-4.021-2.939c-0.34-0.29-0.72-0.58-1.12-0.881v-0.01c-4.189-3.12-11.449-6.91-18.25-10.359
		c-6.89-3.5-13.3-6.65-15.54-8.41c0,0,0,0,0-0.011h-0.01c-0.04-0.029-0.2-0.159-0.479-0.359c-2.23-1.76-4.62-3.49-7.19-5.181
		c-12.42-8.149-14.26-25.479-14.26-38.559c0-6.33,1.24-12.43,3.53-18.17v-0.01c0.84-2.09,1.81-4.141,2.939-6.13
		c0.76-1.4,1.61-2.78,2.521-4.12c0.96-1.42,1.979-2.811,3.09-4.15c0.149-0.2,0.31-0.399,0.48-0.6c0.42-0.5,0.84-1,1.29-1.49
		c1.25-1.42,2.57-2.79,3.971-4.11c1.96-1.859,4.06-3.62,6.279-5.279c0.09-0.08,0.191-0.15,0.28-0.2c0.09-0.061,0.17-0.13,0.26-0.181
		c3.86-2.85,8.07-5.39,12.62-7.56c0.28-0.14,0.57-0.28,0.86-0.4c1.25-0.6,2.52-1.159,3.81-1.689h0.01
		c0.79-0.33,1.57-0.64,2.391-0.94c0.49-0.18,0.979-0.37,1.47-0.55c0.93-0.33,1.87-0.649,2.83-0.95c0.64-0.21,1.29-0.41,1.95-0.6
		c0.67-0.2,1.34-0.39,2.01-0.561c1.66-0.46,3.34-0.869,5.05-1.229c5.95-1.271,12.19-2.01,18.63-2.13
		c0.351-0.021,0.69-0.021,1.04-0.021c0.221-0.01,0.45-0.01,0.67-0.01H94.57z"/>
	<path style="fill:#FFCA8A;" d="M115.105,166.906c0,0,24.126-11.303,51.876-17.104c0,0-5.645-3.382-10.417-3.634
		c0,0,19.5-15.5,30.5-16.167c0,0-8.167-4-15.333-4c0,0,23.25-30.461,2.879-62.246c0,0-12.751,7.238-28.148-4.008
		C131.064,48.502,115.105,166.906,115.105,166.906z"/>
	<path style="fill:#FFCA8A;" d="M170.841,104.016c0,13.08-1.841,30.41-14.25,38.559c-2.58,1.691-4.971,3.421-7.2,5.181
		c-0.28,0.2-0.441,0.33-0.48,0.359h-0.01c0,0.011,0,0.011,0,0.011c-2.08,1.63-7.74,4.46-14.04,7.649
		c-7.2,3.65-15.25,7.77-19.75,11.12v0.01c-0.4,0.301-0.78,0.591-1.12,0.881c-1.16,0.98-2.36,1.869-3.6,2.67
		c-4.46,2.88-9.53,4.569-16.04,4.569H94.21c-0.22,0-0.449,0-0.67-0.01c-0.12,0.01-0.239,0-0.359,0l-0.101-18.5l-0.069-14.75
		l-0.04-7.01l-0.04-9.24l-0.28-54.12l-0.15-28.43v-0.03h0.04c0.33,0,0.67,0,1,0.01c0.221,0,0.45,0,0.67,0.011
		c0.12,0,0.24,0,0.36,0.01c6.68,0.12,13.14,0.91,19.3,2.28c1.7,0.369,3.37,0.79,5.03,1.25c0.45,0.13,0.91,0.26,1.36,0.39
		c0.659,0.189,1.31,0.39,1.949,0.6c0.96,0.301,1.9,0.62,2.83,0.95c0.49,0.18,0.98,0.37,1.471,0.55c0.819,0.301,1.6,0.61,2.39,0.94
		h0.01c1.29,0.53,2.561,1.09,3.811,1.689c0.29,0.12,0.58,0.261,0.87,0.4c4.609,2.21,8.899,4.79,12.81,7.69
		c0.02,0,0.04,0.019,0.06,0.04c2.601,1.93,5.04,3.989,7.28,6.19c1.14,1.11,2.24,2.26,3.28,3.44c0.43,0.479,0.85,0.97,1.26,1.46
		c0.39,0.46,0.76,0.93,1.12,1.399c0.87,1.09,1.68,2.21,2.45,3.351c0.91,1.34,1.76,2.72,2.52,4.12c1.13,1.989,2.101,4.04,2.94,6.13
		v0.01C169.601,91.586,170.841,97.686,170.841,104.016z"/>
	<g>
		<path style="fill:#050403;" d="M122.504,120.789c-4.7,0-10.18,0.088-12.75-3.455c-1.688-2.326-1.375-7.582-1.375-10.67
			c0-7.788,6.337-14.125,14.125-14.125c4.337,0,9.532,0.164,12.125,3.25c2.063,2.457,2,7.424,2,10.875
			C136.629,114.452,130.292,120.789,122.504,120.789z"/>
		<circle style="fill:#79DB93;" cx="122.504" cy="106.664" r="12.125"/>
		<path style="fill:#050403;" d="M106.004,128.289c0,0-3.25,1.25-3-2.375c0.25-3.625-0.875-20.804,11.75-31.054v0.929
			C114.754,95.789,105.629,103.414,106.004,128.289z"/>
		<path style="fill:#050403;" d="M129.463,106.664c0,6.696-6.586,12.12-6.959,12.125c-0.355,0.005-6.958-5.429-6.958-12.125
			c0-6.696,6.958-12.125,6.958-12.125C122.925,95.122,129.463,99.968,129.463,106.664z"/>
		<circle style="fill:#FFFFFF;" cx="126.261" cy="103.56" r="2.52"/>
		<circle style="fill:#FFFFFF;" cx="117.948" cy="108.622" r="1.958"/>
	</g>
	<g>
		<path style="fill:#050403;" d="M65.167,120.789c4.7,0,10.18,0.088,12.75-3.455c1.688-2.326,1.375-7.582,1.375-10.67
			c0-7.788-6.337-14.125-14.125-14.125c-4.337,0-9.532,0.164-12.125,3.25c-2.063,2.457-2,7.424-2,10.875
			C51.042,114.452,57.379,120.789,65.167,120.789z"/>
		<circle style="fill:#79DB93;" cx="65.167" cy="106.664" r="12.125"/>
		<path style="fill:#050403;" d="M81.667,128.289c0,0,3.25,1.25,3-2.375c-0.25-3.625,0.875-20.804-11.75-31.054v0.929
			C72.917,95.789,82.042,103.414,81.667,128.289z"/>
		<path style="fill:#050403;" d="M58.208,106.664c0,6.696,6.586,12.12,6.959,12.125c0.355,0.005,6.958-5.429,6.958-12.125
			c0-6.696-6.958-12.125-6.958-12.125C64.746,95.122,58.208,99.968,58.208,106.664z"/>
		<circle style="fill:#FFFFFF;" cx="61.41" cy="103.56" r="2.52"/>
		<circle style="fill:#FFFFFF;" cx="69.723" cy="108.622" r="1.958"/>
	</g>
	<path style="fill:#FFFFFF;" d="M97.009,134.006c0.903-0.523,1.921-0.918,3.037-1.221c0.063-0.019,0.132-0.041,0.2-0.055
		c0.249-0.068,0.497-0.131,0.759-0.186h0.006c0.049-0.007,0.091-0.02,0.146-0.026c2.219-0.475,4.753-0.635,7.441-0.635
		c7.607,0,13.979,5.299,15.62,12.408c0.268,1.166,0.412,2.378,0.412,3.626c0,8.854-5.96,14.572-14.813,14.572
		c-0.585,0-1.171-0.048-1.751-0.146c-6.227-1.006-11.953-7.2-14.336-13.746v-0.007v-11.326v-0.015
		C94.5,135.839,95.617,134.791,97.009,134.006z"/>
	<path style="fill:#FFFFFF;" d="M94.692,137.252v11.346c-0.148,0.399-0.305,0.809-0.482,1.209c-0.052,0.118-0.104,0.237-0.163,0.355
		c-0.2,0.468-0.431,0.936-0.676,1.388c-2.611,4.965-7.026,9.261-11.856,10.544c-0.379,0.104-0.772,0.186-1.158,0.252
		c-0.586,0.097-1.165,0.142-1.751,0.142c-6.589,0-11.575-3.161-13.697-8.429c-0.319-0.787-0.571-1.618-0.75-2.493
		c-0.245-1.143-0.371-2.367-0.371-3.651c0-1.246,0.148-2.456,0.416-3.621c1.165-5.038,4.704-9.164,9.371-11.138
		c1.922-0.823,4.029-1.269,6.248-1.269c1.647,0,3.243,0.06,4.741,0.215c0.942,0.097,1.848,0.23,2.701,0.416
		c0.052,0.008,0.097,0.023,0.141,0.029h0.008c0.26,0.053,0.512,0.111,0.757,0.186c0.074,0.016,0.142,0.037,0.2,0.053
		c1.121,0.304,2.138,0.697,3.043,1.225c0.696,0.393,1.328,0.853,1.877,1.395c0.304,0.289,0.578,0.607,0.831,0.957
		c0.037,0.037,0.066,0.081,0.089,0.126C94.388,136.725,94.544,136.985,94.692,137.252z"/>
	<path style="fill:#FF9F40;" d="M94.57,42.936v0.03L94.4,75.986v0.08c0-0.01-0.01-0.02-0.01-0.04c0-0.01-0.011-0.02-0.011-0.04
		c-0.05-0.16-0.1-0.359-0.17-0.569c-0.29-0.99-0.8-2.431-1.56-4.021c-2.23-4.57-6.68-10.35-14.91-9.89
		c-2.56,0.14-5.89,0.79-9.729,1.67c-0.07,0.01-0.15,0.03-0.23,0.05c-5.21,1.191-11.32,2.771-17.68,4.03
		c-5.23,1.04-10.61,1.859-15.77,2.069c-1.439,0.061-2.859,0.07-4.25,0.021c-0.7-0.021-1.39-0.059-2.08-0.12
		c-5.909-0.439-11.27-2.01-15.439-5.41c0.84,0.431,6.75,3.32,15.04,1.78c2-0.37,4.14-1,6.38-1.99c2.04-0.89,4.17-2.09,6.35-3.649
		c0.09-0.08,0.191-0.15,0.28-0.2c0.09-0.061,0.17-0.13,0.26-0.181c3.86-2.85,8.07-5.39,12.62-7.56c0.28-0.14,0.57-0.28,0.86-0.4
		c1.25-0.6,2.52-1.159,3.81-1.689h0.01c0.79-0.33,1.57-0.64,2.391-0.94c0.49-0.18,0.979-0.37,1.47-0.55
		c0.93-0.33,1.87-0.649,2.83-0.95c0.64-0.21,1.29-0.41,1.95-0.6c0.67-0.2,1.34-0.39,2.01-0.561c1.66-0.46,3.34-0.869,5.05-1.229
		c5.95-1.271,12.19-2.01,18.63-2.13c0.351-0.021,0.69-0.021,1.04-0.021c0.221-0.01,0.45-0.01,0.67-0.01H94.57z"/>
	<path style="fill:#FF9F40;" d="M94.25,42.932h-0.04l0.17,33.13c0.82-3.05,4.86-15.22,16.66-14.56c6.05,0.34,16.48,3.54,27.641,5.75
		c6.68,1.33,13.619,2.3,20.02,2.09c6.75-0.22,11.25-1.776,15.91-5.586c-0.851,0.45-11.939,6.329-26.16-3.804
		c-0.09-0.08-0.189-0.15-0.28-0.2c-3.93-2.92-8.23-5.52-12.87-7.74c-0.289-0.14-0.579-0.279-0.869-0.4
		c-1.25-0.6-2.52-1.16-3.811-1.69h-0.01c-0.79-0.33-1.57-0.64-2.39-0.939c-0.49-0.181-0.98-0.37-1.471-0.551
		c-0.93-0.33-1.87-0.649-2.83-0.949c-0.64-0.211-1.29-0.41-1.949-0.601C113.351,44.332,104.021,42.932,94.25,42.932z"/>
	<path style="fill:#050403;" d="M106.948,128.509v-0.011c-0.12-0.264-0.286-0.525-0.494-0.769c-0.329-0.428-0.757-0.812-1.251-1.142
		c-0.45-0.306-0.965-0.568-1.515-0.746c-0.603-0.208-1.251-0.328-1.92-0.328h-7.392h-0.334H86.65c-0.669,0-1.317,0.12-1.92,0.328
		c-0.549,0.178-1.063,0.44-1.515,0.746c-0.494,0.33-0.922,0.714-1.251,1.142c-0.208,0.243-0.374,0.505-0.494,0.769v0.011
		c-0.614,1.208-0.438,2.503,1.021,3.326c0.044,0.032,0.088,0.054,0.131,0.076h0.011c0.396,0.208,0.868,0.362,1.383,0.495
		c0.185,0.055,0.385,0.098,0.581,0.152c1.691,0.407,3.634,0.779,4.555,2.064c0.198,0.284,0.363,0.603,0.452,0.987
		c0.997,4.19,2.644,5.837,3.816,6.386c0.238,0.118,0.439,0.175,0.622,0.21v0.042h0.011c0,0,0.055,0,0.065,0
		c0.026-0.001,0.063-0.013,0.091-0.015c0.028,0.002,0.064,0.014,0.091,0.015c0.011,0,0.065,0,0.065,0h0.011v-0.042
		c0.184-0.035,0.384-0.092,0.621-0.21c1.174-0.549,2.82-2.195,3.816-6.386c0.089-0.385,0.254-0.703,0.452-0.987
		c0.921-1.285,2.864-1.657,4.555-2.064c0.196-0.055,0.396-0.098,0.581-0.152c0.515-0.133,0.988-0.287,1.384-0.495h0.011
		c0.042-0.022,0.086-0.044,0.131-0.076C107.387,131.012,107.563,129.717,106.948,128.509z"/>
	<path style="opacity:0.6;fill:#FFFFFF;" d="M94.21,42.936v132.09c-0.22,0-0.449,0-0.67-0.01c-0.27,0.01-0.55,0.01-0.819,0.01
		c-6.301,0-11.261-1.58-15.62-4.3c-0.51,0.14-1.04,0.25-1.561,0.34c-0.79,0.13-1.569,0.19-2.359,0.19
		c-8.88,0-15.601-4.26-18.46-11.36c-9.32-3.42-21.57-7.359-34.63-10.09c0,0,5.64-3.38,10.409-3.63c0,0-19.5-15.5-30.5-16.17
		c0,0,8.17-4,15.341-4c0,0-23.25-30.46-2.881-62.25c0.03,0.01,0.03,0.03,0.051,0.03c0.02,0.01,0.029,0.029,0.05,0.029
		c0.84,0.431,6.75,3.32,15.04,1.78c-1.57-16.23-0.28-38.9,15.37-52.84c5.93-5.29,23.14,20.109,30.899,32.34
		c5.95-1.271,12.19-2.01,18.63-2.13v-0.03h0.04c0.33,0,0.67,0,1,0.01C93.761,42.936,93.99,42.936,94.21,42.936z"/>
</g>
<g>
</g>
<g>
</g>
<g>
</g>
<g>
</g>
<g>
</g>
<g>
</g>
<g>
</g>
<g>
</g>
<g>
</g>
<g>
</g>
<g>
</g>
<g>
</g>
<g>
</g>
<g>
</g>
<g>
</g>
</svg>
